<svg xmlns="http://www.w3.org/2000/svg" viewBox="0 0 640 360" fill="none">
  <rect width="640" height="360" fill="#0c0a14"/>
  <rect x="0" y="0" width="640" height="52" fill="#12101c"/>
  <rect x="20" y="13" width="128" height="26" rx="13" fill="#f2f2fa"/>
  <rect x="30" y="19" width="4" height="14" rx="1" fill="#22a06b"/><rect x="37" y="19" width="4" height="14" rx="1" fill="#1e1a2e"/><rect x="44" y="19" width="4" height="14" rx="1" fill="#1e1a2e"/>
  <text x="56" y="31" fill="#12101c" font-family="system-ui" font-size="11" font-weight="700">Capital Knowledge</text>
  <rect x="176" y="18" width="40" height="16" rx="8" fill="#303050"/>
  <text x="196" y="30" text-anchor="middle" fill="#f2f2fa" font-family="system-ui" font-size="9">Home</text>
  <text x="228" y="30" fill="#9b9bb8" font-family="system-ui" font-size="9">Achievement</text>
  <text x="292" y="30" fill="#9b9bb8" font-family="system-ui" font-size="9">Concept</text>
  <text x="338" y="30" fill="#9b9bb8" font-family="system-ui" font-size="9">EC Consultant</text>
  <text x="408" y="30" fill="#9b9bb8" font-family="system-ui" font-size="9">ISO Consulting</text>
  <rect x="490" y="18" width="20" height="14" rx="3" fill="#303050"/><rect x="514" y="18" width="20" height="14" rx="3" fill="#fbbf24" opacity="0.6"/>
  <rect x="542" y="14" width="80" height="24" rx="12" fill="#fb923c"/>
  <text x="582" y="30" text-anchor="middle" fill="#12101c" font-family="system-ui" font-size="10" font-weight="700">Contact Us</text>
  <rect x="0" y="52" width="640" height="220" fill="#12251f"/>
  <path d="M400 52 L640 52 L640 272 L280 272 Z" fill="#161325"/>
  <circle cx="470" cy="150" r="22" fill="#1e1a2e"/><circle cx="530" cy="140" r="22" fill="#1e1a2e"/><circle cx="590" cy="152" r="22" fill="#1e1a2e"/>
  <rect x="440" y="176" width="180" height="60" rx="10" fill="#1e1a2e"/>
  <rect x="48" y="88" width="24" height="2" fill="#fb923c"/>
  <text x="80" y="92" fill="#9b9bb8" font-family="system-ui" font-size="9" letter-spacing="2">TRUSTED BY LEADING BRANDS</text>
  <text x="48" y="130" fill="#f2f2fa" font-family="system-ui" font-size="28" font-weight="700">Quality Results,</text>
  <text x="48" y="164" fill="#f2f2fa" font-family="system-ui" font-size="28" font-weight="700">Competitive Rates</text>
  <rect x="48" y="180" width="260" height="6" rx="2" fill="#9b9bb8" opacity="0.6"/>
  <rect x="48" y="192" width="150" height="6" rx="2" fill="#9b9bb8" opacity="0.6"/>
  <rect x="48" y="214" width="104" height="32" rx="16" fill="#fb923c"/>
  <text x="100" y="234" text-anchor="middle" fill="#12101c" font-family="system-ui" font-size="11" font-weight="700">Contact Us →</text>
  <rect x="162" y="214" width="96" height="32" rx="16" stroke="#9b9bb8" stroke-opacity="0.6"/>
  <text x="210" y="234" text-anchor="middle" fill="#f2f2fa" font-family="system-ui" font-size="11">Learn more →</text>
  <circle cx="310" cy="258" r="3" fill="#9b9bb8"/><circle cx="320" cy="258" r="3" fill="#9b9bb8"/><rect x="328" y="255" width="16" height="6" rx="3" fill="#fb923c"/>
  <rect x="48" y="288" width="544" height="56" rx="28" fill="#161325"/>
  <circle cx="100" cy="316" r="14" fill="#22a06b" opacity="0.2"/>
  <text x="122" y="314" fill="#f2f2fa" font-family="system-ui" font-size="15" font-weight="700">10+</text>
  <text x="122" y="328" fill="#9b9bb8" font-family="system-ui" font-size="9">Years EC operation</text>
  <rect x="230" y="300" width="1" height="32" fill="#303050"/>
  <circle cx="282" cy="316" r="14" fill="#22a06b" opacity="0.2"/>
  <text x="304" y="314" fill="#f2f2fa" font-family="system-ui" font-size="15" font-weight="700">MM</text>
  <text x="304" y="328" fill="#9b9bb8" font-family="system-ui" font-size="9">Our base: Myanmar</text>
  <rect x="410" y="300" width="1" height="32" fill="#303050"/>
  <circle cx="462" cy="316" r="14" fill="#22a06b" opacity="0.2"/>
  <text x="484" y="314" fill="#f2f2fa" font-family="system-ui" font-size="15" font-weight="700">EC</text>
  <text x="484" y="328" fill="#9b9bb8" font-family="system-ui" font-size="9">Service</text>
</svg>
