<svg xmlns="http://www.w3.org/2000/svg" viewBox="0 0 640 360" fill="none">
  <rect width="640" height="360" fill="#0f172a"/>
  <rect x="0" y="0" width="200" height="360" fill="#1e293b"/>
  <rect x="24" y="24" width="152" height="32" rx="6" fill="#38bdf8" opacity="0.2"/>
  <text x="100" y="46" text-anchor="middle" fill="#38bdf8" font-family="system-ui" font-size="12" font-weight="600">LearnHub</text>
  <rect x="24" y="72" width="152" height="28" rx="4" fill="#334155"/>
  <rect x="24" y="108" width="152" height="28" rx="4" fill="#1e293b"/>
  <rect x="24" y="144" width="152" height="28" rx="4" fill="#1e293b"/>
  <rect x="220" y="24" width="396" height="48" rx="8" fill="#1e293b"/>
  <text x="240" y="54" fill="#f1f5f9" font-family="system-ui" font-size="16" font-weight="600">Vue.js Masterclass</text>
  <rect x="220" y="88" width="260" height="148" rx="8" fill="#1e293b"/>
  <rect x="236" y="104" width="228" height="100" rx="6" fill="#0f172a"/>
  <polygon points="346,134 346,174 386,154" fill="#38bdf8" opacity="0.8"/>
  <rect x="500" y="88" width="116" height="148" rx="8" fill="#1e293b"/>
  <rect x="516" y="108" width="84" height="6" rx="2" fill="#38bdf8" opacity="0.6"/>
  <rect x="516" y="124" width="60" height="4" rx="2" fill="#64748b"/>
  <rect x="220" y="252" width="396" height="88" rx="8" fill="#1e293b"/>
  <rect x="236" y="268" width="320" height="8" rx="4" fill="#334155"/>
  <rect x="236" y="268" width="220" height="8" rx="4" fill="#38bdf8" opacity="0.7"/>
  <text x="236" y="310" fill="#94a3b8" font-family="system-ui" font-size="11">Progress: 68%</text>
</svg>
